<?xml version="1.0" standalone="no"?>
<!DOCTYPE svg PUBLIC "-//W3C//DTD SVG 20010904//EN"
 "http://www.w3.org/TR/2001/REC-SVG-20010904/DTD/svg10.dtd">
<svg version="1.0" xmlns="http://www.w3.org/2000/svg"
 width="512.000000pt" height="512.000000pt" viewBox="0 0 512.000000 512.000000"
 preserveAspectRatio="xMidYMid meet">

<g transform="translate(0.000000,512.000000) scale(0.100000,-0.100000)"
fill="#000000" stroke="none">
<path d="M2365 4234 c-146 -14 -245 -28 -350 -49 -841 -168 -1565 -712 -1957
-1472 -76 -149 -76 -158 6 -317 376 -733 1093 -1277 1916 -1454 209 -45 324
-56 585 -56 207 0 275 4 394 23 617 95 1156 366 1592 801 209 209 378 437 505
685 82 160 82 169 6 318 -417 808 -1193 1361 -2104 1498 -127 19 -491 33 -593
23z m395 -344 c817 -72 1538 -529 1944 -1233 l56 -98 -46 -82 c-255 -451 -669
-825 -1148 -1039 -946 -421 -2038 -214 -2772 528 -148 149 -287 333 -388 512
l-47 83 70 118 c178 301 413 556 701 761 471 335 1065 499 1630 450z"/>
<path d="M2349 3550 c-118 -24 -243 -77 -347 -146 -603 -401 -603 -1287 0
-1688 322 -213 737 -224 1072 -27 310 182 496 508 496 871 0 483 -334 893
-805 991 -118 24 -299 24 -416 -1z m375 -340 c297 -76 506 -344 506 -650 0
-370 -300 -670 -670 -670 -370 0 -670 300 -670 670 0 435 414 758 834 650z"/>
</g>
</svg>
