<?xml version="1.0" standalone="no"?>
<!DOCTYPE svg PUBLIC "-//W3C//DTD SVG 20010904//EN"
 "http://www.w3.org/TR/2001/REC-SVG-20010904/DTD/svg10.dtd">
<svg version="1.0" xmlns="http://www.w3.org/2000/svg"
 width="512.000000pt" height="512.000000pt" viewBox="0 0 512.000000 512.000000"
 preserveAspectRatio="xMidYMid meet">

<g transform="translate(0.000000,512.000000) scale(0.100000,-0.100000)"
fill="#000000" stroke="none">
<path d="M415 4786 c-41 -18 -83 -69 -91 -111 -16 -89 -26 -77 426 -530 l420
-420 -97 -75 c-236 -183 -454 -440 -598 -705 -64 -117 -155 -341 -155 -382 0
-81 135 -373 259 -559 368 -555 946 -914 1641 -1021 163 -25 520 -24 685 1
228 35 512 120 677 202 37 19 73 34 80 34 7 0 213 -200 458 -444 482 -481 466
-468 557 -451 49 9 109 69 118 118 17 91 28 77 -425 532 l-420 420 97 75 c250
194 478 469 619 747 67 132 134 303 134 343 0 65 -126 347 -225 504 -201 318
-453 563 -783 761 -258 155 -564 262 -892 312 -161 24 -520 24 -680 0 -231
-35 -473 -106 -658 -193 -52 -24 -100 -44 -106 -44 -6 0 -207 196 -446 436
-245 246 -449 442 -467 450 -40 17 -89 17 -128 0z m2469 -971 c573 -89 1077
-407 1391 -875 71 -107 188 -342 188 -379 0 -39 -101 -245 -179 -364 -89 -135
-160 -221 -285 -343 -92 -89 -259 -224 -277 -224 -4 0 -92 84 -195 188 l-187
187 26 39 c43 63 101 195 126 286 29 110 32 335 5 444 -46 182 -128 328 -261
462 -134 133 -280 215 -462 261 -108 27 -334 24 -443 -5 -90 -25 -203 -73
-281 -121 l-47 -29 -152 152 c-83 83 -151 154 -151 158 0 12 212 89 325 118
99 25 253 53 360 64 81 8 403 -4 499 -19z m-1293 -511 l187 -187 -29 -47 c-48
-78 -96 -191 -121 -281 -29 -109 -32 -335 -5 -443 46 -182 128 -328 261 -462
134 -133 280 -215 462 -261 109 -27 334 -24 444 5 91 25 223 83 286 126 l39
26 152 -152 c84 -84 153 -156 153 -160 0 -12 -211 -89 -325 -118 -204 -52
-310 -65 -540 -64 -232 0 -370 18 -570 74 -494 139 -923 460 -1179 881 -66
109 -149 288 -149 320 0 15 29 88 66 161 109 220 217 367 398 544 92 88 259
224 277 224 4 0 91 -84 193 -186z m1104 -119 c179 -37 353 -171 434 -335 89
-182 93 -373 11 -549 l-31 -65 -434 434 c-239 239 -435 436 -435 437 0 2 23
14 51 29 118 59 267 78 404 49z m-245 -740 l434 -434 -65 -31 c-123 -57 -260
-73 -393 -45 -346 73 -573 431 -487 767 16 62 64 178 74 178 1 0 198 -196 437
-435z"/>
</g>
</svg>
